<svg xmlns="http://www.w3.org/2000/svg" viewBox="0 0 192 192" width="192" height="192">
  <rect width="192" height="192" fill="#5865f2" rx="32"/>
  <path d="M144 60c-6.6 0-12 5.4-12 12v48c0 6.6 5.4 12 12 12 6.6 0 12-5.4 12-12V72c0-6.6-5.4-12-12-12zM48 60c-6.6 0-12 5.4-12 12v48c0 6.6 5.4 12 12 12 6.6 0 12-5.4 12-12V72c0-6.6-5.4-12-12-12zM96 32c-22.1 0-40 17.9-40 40 0 8.4 2.6 16.3 7.1 22.9l-8.7 26.6c-1.1 3.4 2.8 6 6 4l33.6-19.4C91.1 103.9 91 104 91 104c1.2 1.3 3 2 5 2h46c3.9 0 7.2-2.7 7.9-6.4l4.1-22.8C157.3 67.3 160 59.4 160 51c0-22.1-17.9-40-40-40z" fill="white"/>
</svg>